<?xml version="1.0" encoding="UTF-8"?>
<svg xmlns="http://www.w3.org/2000/svg" viewBox="0 0 193.80 13.30" width="193.8" height="13.3">
  <title>LED Word / scanning-overlay / 1.9pt</title>
  <circle cx="2.622" cy="0.722" r="0.722" fill="#73B8EB"/><circle cx="4.522" cy="0.722" r="0.722" fill="#73B8EB"/><circle cx="6.422" cy="0.722" r="0.722" fill="#73B8EB"/><circle cx="8.322" cy="0.722" r="0.722" fill="#73B8EB"/><circle cx="0.722" cy="2.622" r="0.722" fill="#73B8EB"/><circle cx="0.722" cy="4.522" r="0.722" fill="#73B8EB"/><circle cx="2.622" cy="6.422" r="0.722" fill="#73B8EB"/><circle cx="4.522" cy="6.422" r="0.722" fill="#73B8EB"/><circle cx="6.422" cy="6.422" r="0.722" fill="#73B8EB"/><circle cx="8.322" cy="8.322" r="0.722" fill="#73B8EB"/><circle cx="8.322" cy="10.222" r="0.722" fill="#73B8EB"/><circle cx="0.722" cy="12.122" r="0.722" fill="#73B8EB"/><circle cx="2.622" cy="12.122" r="0.722" fill="#73B8EB"/><circle cx="4.522" cy="12.122" r="0.722" fill="#73B8EB"/><circle cx="6.422" cy="12.122" r="0.722" fill="#73B8EB"/><circle cx="14.022" cy="0.722" r="0.722" fill="#73B8EB"/><circle cx="15.922" cy="0.722" r="0.722" fill="#73B8EB"/><circle cx="17.822" cy="0.722" r="0.722" fill="#73B8EB"/><circle cx="12.122" cy="2.622" r="0.722" fill="#73B8EB"/><circle cx="19.722" cy="2.622" r="0.722" fill="#73B8EB"/><circle cx="12.122" cy="4.522" r="0.722" fill="#73B8EB"/><circle cx="12.122" cy="6.422" r="0.722" fill="#73B8EB"/><circle cx="12.122" cy="8.322" r="0.722" fill="#73B8EB"/><circle cx="12.122" cy="10.222" r="0.722" fill="#73B8EB"/><circle cx="19.722" cy="10.222" r="0.722" fill="#73B8EB"/><circle cx="14.022" cy="12.122" r="0.722" fill="#73B8EB"/><circle cx="15.922" cy="12.122" r="0.722" fill="#73B8EB"/><circle cx="17.822" cy="12.122" r="0.722" fill="#73B8EB"/><circle cx="25.422" cy="0.722" r="0.722" fill="#73B8EB"/><circle cx="27.322" cy="0.722" r="0.722" fill="#73B8EB"/><circle cx="29.222" cy="0.722" r="0.722" fill="#73B8EB"/><circle cx="23.522" cy="2.622" r="0.722" fill="#73B8EB"/><circle cx="31.122" cy="2.622" r="0.722" fill="#73B8EB"/><circle cx="23.522" cy="4.522" r="0.722" fill="#73B8EB"/><circle cx="31.122" cy="4.522" r="0.722" fill="#73B8EB"/><circle cx="23.522" cy="6.422" r="0.722" fill="#73B8EB"/><circle cx="25.422" cy="6.422" r="0.722" fill="#73B8EB"/><circle cx="27.322" cy="6.422" r="0.722" fill="#73B8EB"/><circle cx="29.222" cy="6.422" r="0.722" fill="#73B8EB"/><circle cx="31.122" cy="6.422" r="0.722" fill="#73B8EB"/><circle cx="23.522" cy="8.322" r="0.722" fill="#73B8EB"/><circle cx="31.122" cy="8.322" r="0.722" fill="#73B8EB"/><circle cx="23.522" cy="10.222" r="0.722" fill="#73B8EB"/><circle cx="31.122" cy="10.222" r="0.722" fill="#73B8EB"/><circle cx="23.522" cy="12.122" r="0.722" fill="#73B8EB"/><circle cx="31.122" cy="12.122" r="0.722" fill="#73B8EB"/><circle cx="34.922" cy="0.722" r="0.722" fill="#73B8EB"/><circle cx="42.522" cy="0.722" r="0.722" fill="#73B8EB"/><circle cx="34.922" cy="2.622" r="0.722" fill="#73B8EB"/><circle cx="36.822" cy="2.622" r="0.722" fill="#73B8EB"/><circle cx="42.522" cy="2.622" r="0.722" fill="#73B8EB"/><circle cx="34.922" cy="4.522" r="0.722" fill="#73B8EB"/><circle cx="38.722" cy="4.522" r="0.722" fill="#73B8EB"/><circle cx="42.522" cy="4.522" r="0.722" fill="#73B8EB"/><circle cx="34.922" cy="6.422" r="0.722" fill="#73B8EB"/><circle cx="40.622" cy="6.422" r="0.722" fill="#73B8EB"/><circle cx="42.522" cy="6.422" r="0.722" fill="#73B8EB"/><circle cx="34.922" cy="8.322" r="0.722" fill="#73B8EB"/><circle cx="42.522" cy="8.322" r="0.722" fill="#73B8EB"/><circle cx="34.922" cy="10.222" r="0.722" fill="#73B8EB"/><circle cx="42.522" cy="10.222" r="0.722" fill="#73B8EB"/><circle cx="34.922" cy="12.122" r="0.722" fill="#73B8EB"/><circle cx="42.522" cy="12.122" r="0.722" fill="#73B8EB"/><circle cx="46.322" cy="0.722" r="0.722" fill="#73B8EB"/><circle cx="53.922" cy="0.722" r="0.722" fill="#73B8EB"/><circle cx="46.322" cy="2.622" r="0.722" fill="#73B8EB"/><circle cx="48.222" cy="2.622" r="0.722" fill="#73B8EB"/><circle cx="53.922" cy="2.622" r="0.722" fill="#73B8EB"/><circle cx="46.322" cy="4.522" r="0.722" fill="#73B8EB"/><circle cx="50.122" cy="4.522" r="0.722" fill="#73B8EB"/><circle cx="53.922" cy="4.522" r="0.722" fill="#73B8EB"/><circle cx="46.322" cy="6.422" r="0.722" fill="#73B8EB"/><circle cx="52.022" cy="6.422" r="0.722" fill="#73B8EB"/><circle cx="53.922" cy="6.422" r="0.722" fill="#73B8EB"/><circle cx="46.322" cy="8.322" r="0.722" fill="#73B8EB"/><circle cx="53.922" cy="8.322" r="0.722" fill="#73B8EB"/><circle cx="46.322" cy="10.222" r="0.722" fill="#73B8EB"/><circle cx="53.922" cy="10.222" r="0.722" fill="#73B8EB"/><circle cx="46.322" cy="12.122" r="0.722" fill="#73B8EB"/><circle cx="53.922" cy="12.122" r="0.722" fill="#73B8EB"/><circle cx="59.622" cy="0.722" r="0.722" fill="#73B8EB"/><circle cx="61.522" cy="0.722" r="0.722" fill="#73B8EB"/><circle cx="63.422" cy="0.722" r="0.722" fill="#73B8EB"/><circle cx="61.522" cy="2.622" r="0.722" fill="#73B8EB"/><circle cx="61.522" cy="4.522" r="0.722" fill="#73B8EB"/><circle cx="61.522" cy="6.422" r="0.722" fill="#73B8EB"/><circle cx="61.522" cy="8.322" r="0.722" fill="#73B8EB"/><circle cx="61.522" cy="10.222" r="0.722" fill="#73B8EB"/><circle cx="59.622" cy="12.122" r="0.722" fill="#73B8EB"/><circle cx="61.522" cy="12.122" r="0.722" fill="#73B8EB"/><circle cx="63.422" cy="12.122" r="0.722" fill="#73B8EB"/><circle cx="69.122" cy="0.722" r="0.722" fill="#73B8EB"/><circle cx="76.722" cy="0.722" r="0.722" fill="#73B8EB"/><circle cx="69.122" cy="2.622" r="0.722" fill="#73B8EB"/><circle cx="71.022" cy="2.622" r="0.722" fill="#73B8EB"/><circle cx="76.722" cy="2.622" r="0.722" fill="#73B8EB"/><circle cx="69.122" cy="4.522" r="0.722" fill="#73B8EB"/><circle cx="72.922" cy="4.522" r="0.722" fill="#73B8EB"/><circle cx="76.722" cy="4.522" r="0.722" fill="#73B8EB"/><circle cx="69.122" cy="6.422" r="0.722" fill="#73B8EB"/><circle cx="74.822" cy="6.422" r="0.722" fill="#73B8EB"/><circle cx="76.722" cy="6.422" r="0.722" fill="#73B8EB"/><circle cx="69.122" cy="8.322" r="0.722" fill="#73B8EB"/><circle cx="76.722" cy="8.322" r="0.722" fill="#73B8EB"/><circle cx="69.122" cy="10.222" r="0.722" fill="#73B8EB"/><circle cx="76.722" cy="10.222" r="0.722" fill="#73B8EB"/><circle cx="69.122" cy="12.122" r="0.722" fill="#73B8EB"/><circle cx="76.722" cy="12.122" r="0.722" fill="#73B8EB"/><circle cx="82.422" cy="0.722" r="0.722" fill="#73B8EB"/><circle cx="84.322" cy="0.722" r="0.722" fill="#73B8EB"/><circle cx="86.222" cy="0.722" r="0.722" fill="#73B8EB"/><circle cx="80.522" cy="2.622" r="0.722" fill="#73B8EB"/><circle cx="88.122" cy="2.622" r="0.722" fill="#73B8EB"/><circle cx="80.522" cy="4.522" r="0.722" fill="#73B8EB"/><circle cx="80.522" cy="6.422" r="0.722" fill="#73B8EB"/><circle cx="84.322" cy="6.422" r="0.722" fill="#73B8EB"/><circle cx="86.222" cy="6.422" r="0.722" fill="#73B8EB"/><circle cx="88.122" cy="6.422" r="0.722" fill="#73B8EB"/><circle cx="80.522" cy="8.322" r="0.722" fill="#73B8EB"/><circle cx="88.122" cy="8.322" r="0.722" fill="#73B8EB"/><circle cx="80.522" cy="10.222" r="0.722" fill="#73B8EB"/><circle cx="88.122" cy="10.222" r="0.722" fill="#73B8EB"/><circle cx="82.422" cy="12.122" r="0.722" fill="#73B8EB"/><circle cx="84.322" cy="12.122" r="0.722" fill="#73B8EB"/><circle cx="86.222" cy="12.122" r="0.722" fill="#73B8EB"/><circle cx="105.222" cy="0.722" r="0.722" fill="#73B8EB"/><circle cx="107.122" cy="0.722" r="0.722" fill="#73B8EB"/><circle cx="109.022" cy="0.722" r="0.722" fill="#73B8EB"/><circle cx="103.322" cy="2.622" r="0.722" fill="#73B8EB"/><circle cx="110.922" cy="2.622" r="0.722" fill="#73B8EB"/><circle cx="103.322" cy="4.522" r="0.722" fill="#73B8EB"/><circle cx="110.922" cy="4.522" r="0.722" fill="#73B8EB"/><circle cx="103.322" cy="6.422" r="0.722" fill="#73B8EB"/><circle cx="105.222" cy="6.422" r="0.722" fill="#73B8EB"/><circle cx="107.122" cy="6.422" r="0.722" fill="#73B8EB"/><circle cx="109.022" cy="6.422" r="0.722" fill="#73B8EB"/><circle cx="110.922" cy="6.422" r="0.722" fill="#73B8EB"/><circle cx="103.322" cy="8.322" r="0.722" fill="#73B8EB"/><circle cx="110.922" cy="8.322" r="0.722" fill="#73B8EB"/><circle cx="103.322" cy="10.222" r="0.722" fill="#73B8EB"/><circle cx="110.922" cy="10.222" r="0.722" fill="#73B8EB"/><circle cx="103.322" cy="12.122" r="0.722" fill="#73B8EB"/><circle cx="110.922" cy="12.122" r="0.722" fill="#73B8EB"/><circle cx="116.622" cy="0.722" r="0.722" fill="#73B8EB"/><circle cx="118.522" cy="0.722" r="0.722" fill="#73B8EB"/><circle cx="120.422" cy="0.722" r="0.722" fill="#73B8EB"/><circle cx="118.522" cy="2.622" r="0.722" fill="#73B8EB"/><circle cx="118.522" cy="4.522" r="0.722" fill="#73B8EB"/><circle cx="118.522" cy="6.422" r="0.722" fill="#73B8EB"/><circle cx="118.522" cy="8.322" r="0.722" fill="#73B8EB"/><circle cx="118.522" cy="10.222" r="0.722" fill="#73B8EB"/><circle cx="116.622" cy="12.122" r="0.722" fill="#73B8EB"/><circle cx="118.522" cy="12.122" r="0.722" fill="#73B8EB"/><circle cx="120.422" cy="12.122" r="0.722" fill="#73B8EB"/><circle cx="126.122" cy="0.722" r="0.722" fill="#73B8EB"/><circle cx="128.022" cy="0.722" r="0.722" fill="#73B8EB"/><circle cx="129.922" cy="0.722" r="0.722" fill="#73B8EB"/><circle cx="131.822" cy="0.722" r="0.722" fill="#73B8EB"/><circle cx="126.122" cy="2.622" r="0.722" fill="#73B8EB"/><circle cx="133.722" cy="2.622" r="0.722" fill="#73B8EB"/><circle cx="126.122" cy="4.522" r="0.722" fill="#73B8EB"/><circle cx="133.722" cy="4.522" r="0.722" fill="#73B8EB"/><circle cx="126.122" cy="6.422" r="0.722" fill="#73B8EB"/><circle cx="128.022" cy="6.422" r="0.722" fill="#73B8EB"/><circle cx="129.922" cy="6.422" r="0.722" fill="#73B8EB"/><circle cx="131.822" cy="6.422" r="0.722" fill="#73B8EB"/><circle cx="126.122" cy="8.322" r="0.722" fill="#73B8EB"/><circle cx="129.922" cy="8.322" r="0.722" fill="#73B8EB"/><circle cx="126.122" cy="10.222" r="0.722" fill="#73B8EB"/><circle cx="131.822" cy="10.222" r="0.722" fill="#73B8EB"/><circle cx="126.122" cy="12.122" r="0.722" fill="#73B8EB"/><circle cx="133.722" cy="12.122" r="0.722" fill="#73B8EB"/><circle cx="139.422" cy="0.722" r="0.722" fill="#73B8EB"/><circle cx="141.322" cy="0.722" r="0.722" fill="#73B8EB"/><circle cx="143.222" cy="0.722" r="0.722" fill="#73B8EB"/><circle cx="145.122" cy="0.722" r="0.722" fill="#73B8EB"/><circle cx="137.522" cy="2.622" r="0.722" fill="#73B8EB"/><circle cx="137.522" cy="4.522" r="0.722" fill="#73B8EB"/><circle cx="139.422" cy="6.422" r="0.722" fill="#73B8EB"/><circle cx="141.322" cy="6.422" r="0.722" fill="#73B8EB"/><circle cx="143.222" cy="6.422" r="0.722" fill="#73B8EB"/><circle cx="145.122" cy="8.322" r="0.722" fill="#73B8EB"/><circle cx="145.122" cy="10.222" r="0.722" fill="#73B8EB"/><circle cx="137.522" cy="12.122" r="0.722" fill="#73B8EB"/><circle cx="139.422" cy="12.122" r="0.722" fill="#73B8EB"/><circle cx="141.322" cy="12.122" r="0.722" fill="#73B8EB"/><circle cx="143.222" cy="12.122" r="0.722" fill="#73B8EB"/><circle cx="148.922" cy="0.722" r="0.722" fill="#73B8EB"/><circle cx="150.822" cy="0.722" r="0.722" fill="#73B8EB"/><circle cx="152.722" cy="0.722" r="0.722" fill="#73B8EB"/><circle cx="154.622" cy="0.722" r="0.722" fill="#73B8EB"/><circle cx="148.922" cy="2.622" r="0.722" fill="#73B8EB"/><circle cx="156.522" cy="2.622" r="0.722" fill="#73B8EB"/><circle cx="148.922" cy="4.522" r="0.722" fill="#73B8EB"/><circle cx="156.522" cy="4.522" r="0.722" fill="#73B8EB"/><circle cx="148.922" cy="6.422" r="0.722" fill="#73B8EB"/><circle cx="150.822" cy="6.422" r="0.722" fill="#73B8EB"/><circle cx="152.722" cy="6.422" r="0.722" fill="#73B8EB"/><circle cx="154.622" cy="6.422" r="0.722" fill="#73B8EB"/><circle cx="148.922" cy="8.322" r="0.722" fill="#73B8EB"/><circle cx="148.922" cy="10.222" r="0.722" fill="#73B8EB"/><circle cx="148.922" cy="12.122" r="0.722" fill="#73B8EB"/><circle cx="162.222" cy="0.722" r="0.722" fill="#73B8EB"/><circle cx="164.122" cy="0.722" r="0.722" fill="#73B8EB"/><circle cx="166.022" cy="0.722" r="0.722" fill="#73B8EB"/><circle cx="160.322" cy="2.622" r="0.722" fill="#73B8EB"/><circle cx="167.922" cy="2.622" r="0.722" fill="#73B8EB"/><circle cx="160.322" cy="4.522" r="0.722" fill="#73B8EB"/><circle cx="167.922" cy="4.522" r="0.722" fill="#73B8EB"/><circle cx="160.322" cy="6.422" r="0.722" fill="#73B8EB"/><circle cx="162.222" cy="6.422" r="0.722" fill="#73B8EB"/><circle cx="164.122" cy="6.422" r="0.722" fill="#73B8EB"/><circle cx="166.022" cy="6.422" r="0.722" fill="#73B8EB"/><circle cx="167.922" cy="6.422" r="0.722" fill="#73B8EB"/><circle cx="160.322" cy="8.322" r="0.722" fill="#73B8EB"/><circle cx="167.922" cy="8.322" r="0.722" fill="#73B8EB"/><circle cx="160.322" cy="10.222" r="0.722" fill="#73B8EB"/><circle cx="167.922" cy="10.222" r="0.722" fill="#73B8EB"/><circle cx="160.322" cy="12.122" r="0.722" fill="#73B8EB"/><circle cx="167.922" cy="12.122" r="0.722" fill="#73B8EB"/><circle cx="173.622" cy="0.722" r="0.722" fill="#73B8EB"/><circle cx="175.522" cy="0.722" r="0.722" fill="#73B8EB"/><circle cx="177.422" cy="0.722" r="0.722" fill="#73B8EB"/><circle cx="171.722" cy="2.622" r="0.722" fill="#73B8EB"/><circle cx="179.322" cy="2.622" r="0.722" fill="#73B8EB"/><circle cx="171.722" cy="4.522" r="0.722" fill="#73B8EB"/><circle cx="171.722" cy="6.422" r="0.722" fill="#73B8EB"/><circle cx="171.722" cy="8.322" r="0.722" fill="#73B8EB"/><circle cx="171.722" cy="10.222" r="0.722" fill="#73B8EB"/><circle cx="179.322" cy="10.222" r="0.722" fill="#73B8EB"/><circle cx="173.622" cy="12.122" r="0.722" fill="#73B8EB"/><circle cx="175.522" cy="12.122" r="0.722" fill="#73B8EB"/><circle cx="177.422" cy="12.122" r="0.722" fill="#73B8EB"/><circle cx="183.122" cy="0.722" r="0.722" fill="#73B8EB"/><circle cx="185.022" cy="0.722" r="0.722" fill="#73B8EB"/><circle cx="186.922" cy="0.722" r="0.722" fill="#73B8EB"/><circle cx="188.822" cy="0.722" r="0.722" fill="#73B8EB"/><circle cx="190.722" cy="0.722" r="0.722" fill="#73B8EB"/><circle cx="183.122" cy="2.622" r="0.722" fill="#73B8EB"/><circle cx="183.122" cy="4.522" r="0.722" fill="#73B8EB"/><circle cx="183.122" cy="6.422" r="0.722" fill="#73B8EB"/><circle cx="185.022" cy="6.422" r="0.722" fill="#73B8EB"/><circle cx="186.922" cy="6.422" r="0.722" fill="#73B8EB"/><circle cx="188.822" cy="6.422" r="0.722" fill="#73B8EB"/><circle cx="183.122" cy="8.322" r="0.722" fill="#73B8EB"/><circle cx="183.122" cy="10.222" r="0.722" fill="#73B8EB"/><circle cx="183.122" cy="12.122" r="0.722" fill="#73B8EB"/><circle cx="185.022" cy="12.122" r="0.722" fill="#73B8EB"/><circle cx="186.922" cy="12.122" r="0.722" fill="#73B8EB"/><circle cx="188.822" cy="12.122" r="0.722" fill="#73B8EB"/><circle cx="190.722" cy="12.122" r="0.722" fill="#73B8EB"/>
</svg>
