<?xml version="1.0" encoding="UTF-8"?>
<svg xmlns="http://www.w3.org/2000/svg" viewBox="0 0 66.00 15.40" width="66.0" height="15.4">
  <title>LED Word / spec-range / 2.2pt</title>
  <circle cx="0.836" cy="0.836" r="0.836" fill="#73B8EB"/><circle cx="3.036" cy="0.836" r="0.836" fill="#73B8EB"/><circle cx="5.236" cy="0.836" r="0.836" fill="#73B8EB"/><circle cx="7.436" cy="0.836" r="0.836" fill="#73B8EB"/><circle cx="9.636" cy="0.836" r="0.435" fill="rgba(115,184,235,0.07)"/><circle cx="0.836" cy="3.036" r="0.836" fill="#73B8EB"/><circle cx="3.036" cy="3.036" r="0.435" fill="rgba(115,184,235,0.07)"/><circle cx="5.236" cy="3.036" r="0.435" fill="rgba(115,184,235,0.07)"/><circle cx="7.436" cy="3.036" r="0.435" fill="rgba(115,184,235,0.07)"/><circle cx="9.636" cy="3.036" r="0.836" fill="#73B8EB"/><circle cx="0.836" cy="5.236" r="0.836" fill="#73B8EB"/><circle cx="3.036" cy="5.236" r="0.435" fill="rgba(115,184,235,0.07)"/><circle cx="5.236" cy="5.236" r="0.435" fill="rgba(115,184,235,0.07)"/><circle cx="7.436" cy="5.236" r="0.435" fill="rgba(115,184,235,0.07)"/><circle cx="9.636" cy="5.236" r="0.836" fill="#73B8EB"/><circle cx="0.836" cy="7.436" r="0.836" fill="#73B8EB"/><circle cx="3.036" cy="7.436" r="0.836" fill="#73B8EB"/><circle cx="5.236" cy="7.436" r="0.836" fill="#73B8EB"/><circle cx="7.436" cy="7.436" r="0.836" fill="#73B8EB"/><circle cx="9.636" cy="7.436" r="0.435" fill="rgba(115,184,235,0.07)"/><circle cx="0.836" cy="9.636" r="0.836" fill="#73B8EB"/><circle cx="3.036" cy="9.636" r="0.435" fill="rgba(115,184,235,0.07)"/><circle cx="5.236" cy="9.636" r="0.836" fill="#73B8EB"/><circle cx="7.436" cy="9.636" r="0.435" fill="rgba(115,184,235,0.07)"/><circle cx="9.636" cy="9.636" r="0.435" fill="rgba(115,184,235,0.07)"/><circle cx="0.836" cy="11.836" r="0.836" fill="#73B8EB"/><circle cx="3.036" cy="11.836" r="0.435" fill="rgba(115,184,235,0.07)"/><circle cx="5.236" cy="11.836" r="0.435" fill="rgba(115,184,235,0.07)"/><circle cx="7.436" cy="11.836" r="0.836" fill="#73B8EB"/><circle cx="9.636" cy="11.836" r="0.435" fill="rgba(115,184,235,0.07)"/><circle cx="0.836" cy="14.036" r="0.836" fill="#73B8EB"/><circle cx="3.036" cy="14.036" r="0.435" fill="rgba(115,184,235,0.07)"/><circle cx="5.236" cy="14.036" r="0.435" fill="rgba(115,184,235,0.07)"/><circle cx="7.436" cy="14.036" r="0.435" fill="rgba(115,184,235,0.07)"/><circle cx="9.636" cy="14.036" r="0.836" fill="#73B8EB"/><circle cx="14.036" cy="0.836" r="0.435" fill="rgba(115,184,235,0.07)"/><circle cx="16.236" cy="0.836" r="0.836" fill="#73B8EB"/><circle cx="18.436" cy="0.836" r="0.836" fill="#73B8EB"/><circle cx="20.636" cy="0.836" r="0.836" fill="#73B8EB"/><circle cx="22.836" cy="0.836" r="0.435" fill="rgba(115,184,235,0.07)"/><circle cx="14.036" cy="3.036" r="0.836" fill="#73B8EB"/><circle cx="16.236" cy="3.036" r="0.435" fill="rgba(115,184,235,0.07)"/><circle cx="18.436" cy="3.036" r="0.435" fill="rgba(115,184,235,0.07)"/><circle cx="20.636" cy="3.036" r="0.435" fill="rgba(115,184,235,0.07)"/><circle cx="22.836" cy="3.036" r="0.836" fill="#73B8EB"/><circle cx="14.036" cy="5.236" r="0.836" fill="#73B8EB"/><circle cx="16.236" cy="5.236" r="0.435" fill="rgba(115,184,235,0.07)"/><circle cx="18.436" cy="5.236" r="0.435" fill="rgba(115,184,235,0.07)"/><circle cx="20.636" cy="5.236" r="0.435" fill="rgba(115,184,235,0.07)"/><circle cx="22.836" cy="5.236" r="0.836" fill="#73B8EB"/><circle cx="14.036" cy="7.436" r="0.836" fill="#73B8EB"/><circle cx="16.236" cy="7.436" r="0.836" fill="#73B8EB"/><circle cx="18.436" cy="7.436" r="0.836" fill="#73B8EB"/><circle cx="20.636" cy="7.436" r="0.836" fill="#73B8EB"/><circle cx="22.836" cy="7.436" r="0.836" fill="#73B8EB"/><circle cx="14.036" cy="9.636" r="0.836" fill="#73B8EB"/><circle cx="16.236" cy="9.636" r="0.435" fill="rgba(115,184,235,0.07)"/><circle cx="18.436" cy="9.636" r="0.435" fill="rgba(115,184,235,0.07)"/><circle cx="20.636" cy="9.636" r="0.435" fill="rgba(115,184,235,0.07)"/><circle cx="22.836" cy="9.636" r="0.836" fill="#73B8EB"/><circle cx="14.036" cy="11.836" r="0.836" fill="#73B8EB"/><circle cx="16.236" cy="11.836" r="0.435" fill="rgba(115,184,235,0.07)"/><circle cx="18.436" cy="11.836" r="0.435" fill="rgba(115,184,235,0.07)"/><circle cx="20.636" cy="11.836" r="0.435" fill="rgba(115,184,235,0.07)"/><circle cx="22.836" cy="11.836" r="0.836" fill="#73B8EB"/><circle cx="14.036" cy="14.036" r="0.836" fill="#73B8EB"/><circle cx="16.236" cy="14.036" r="0.435" fill="rgba(115,184,235,0.07)"/><circle cx="18.436" cy="14.036" r="0.435" fill="rgba(115,184,235,0.07)"/><circle cx="20.636" cy="14.036" r="0.435" fill="rgba(115,184,235,0.07)"/><circle cx="22.836" cy="14.036" r="0.836" fill="#73B8EB"/><circle cx="27.236" cy="0.836" r="0.836" fill="#73B8EB"/><circle cx="29.436" cy="0.836" r="0.435" fill="rgba(115,184,235,0.07)"/><circle cx="31.636" cy="0.836" r="0.435" fill="rgba(115,184,235,0.07)"/><circle cx="33.836" cy="0.836" r="0.435" fill="rgba(115,184,235,0.07)"/><circle cx="36.036" cy="0.836" r="0.836" fill="#73B8EB"/><circle cx="27.236" cy="3.036" r="0.836" fill="#73B8EB"/><circle cx="29.436" cy="3.036" r="0.836" fill="#73B8EB"/><circle cx="31.636" cy="3.036" r="0.435" fill="rgba(115,184,235,0.07)"/><circle cx="33.836" cy="3.036" r="0.435" fill="rgba(115,184,235,0.07)"/><circle cx="36.036" cy="3.036" r="0.836" fill="#73B8EB"/><circle cx="27.236" cy="5.236" r="0.836" fill="#73B8EB"/><circle cx="29.436" cy="5.236" r="0.435" fill="rgba(115,184,235,0.07)"/><circle cx="31.636" cy="5.236" r="0.836" fill="#73B8EB"/><circle cx="33.836" cy="5.236" r="0.435" fill="rgba(115,184,235,0.07)"/><circle cx="36.036" cy="5.236" r="0.836" fill="#73B8EB"/><circle cx="27.236" cy="7.436" r="0.836" fill="#73B8EB"/><circle cx="29.436" cy="7.436" r="0.435" fill="rgba(115,184,235,0.07)"/><circle cx="31.636" cy="7.436" r="0.435" fill="rgba(115,184,235,0.07)"/><circle cx="33.836" cy="7.436" r="0.836" fill="#73B8EB"/><circle cx="36.036" cy="7.436" r="0.836" fill="#73B8EB"/><circle cx="27.236" cy="9.636" r="0.836" fill="#73B8EB"/><circle cx="29.436" cy="9.636" r="0.435" fill="rgba(115,184,235,0.07)"/><circle cx="31.636" cy="9.636" r="0.435" fill="rgba(115,184,235,0.07)"/><circle cx="33.836" cy="9.636" r="0.435" fill="rgba(115,184,235,0.07)"/><circle cx="36.036" cy="9.636" r="0.836" fill="#73B8EB"/><circle cx="27.236" cy="11.836" r="0.836" fill="#73B8EB"/><circle cx="29.436" cy="11.836" r="0.435" fill="rgba(115,184,235,0.07)"/><circle cx="31.636" cy="11.836" r="0.435" fill="rgba(115,184,235,0.07)"/><circle cx="33.836" cy="11.836" r="0.435" fill="rgba(115,184,235,0.07)"/><circle cx="36.036" cy="11.836" r="0.836" fill="#73B8EB"/><circle cx="27.236" cy="14.036" r="0.836" fill="#73B8EB"/><circle cx="29.436" cy="14.036" r="0.435" fill="rgba(115,184,235,0.07)"/><circle cx="31.636" cy="14.036" r="0.435" fill="rgba(115,184,235,0.07)"/><circle cx="33.836" cy="14.036" r="0.435" fill="rgba(115,184,235,0.07)"/><circle cx="36.036" cy="14.036" r="0.836" fill="#73B8EB"/><circle cx="40.436" cy="0.836" r="0.435" fill="rgba(115,184,235,0.07)"/><circle cx="42.636" cy="0.836" r="0.836" fill="#73B8EB"/><circle cx="44.836" cy="0.836" r="0.836" fill="#73B8EB"/><circle cx="47.036" cy="0.836" r="0.836" fill="#73B8EB"/><circle cx="49.236" cy="0.836" r="0.435" fill="rgba(115,184,235,0.07)"/><circle cx="40.436" cy="3.036" r="0.836" fill="#73B8EB"/><circle cx="42.636" cy="3.036" r="0.435" fill="rgba(115,184,235,0.07)"/><circle cx="44.836" cy="3.036" r="0.435" fill="rgba(115,184,235,0.07)"/><circle cx="47.036" cy="3.036" r="0.435" fill="rgba(115,184,235,0.07)"/><circle cx="49.236" cy="3.036" r="0.836" fill="#73B8EB"/><circle cx="40.436" cy="5.236" r="0.836" fill="#73B8EB"/><circle cx="42.636" cy="5.236" r="0.435" fill="rgba(115,184,235,0.07)"/><circle cx="44.836" cy="5.236" r="0.435" fill="rgba(115,184,235,0.07)"/><circle cx="47.036" cy="5.236" r="0.435" fill="rgba(115,184,235,0.07)"/><circle cx="49.236" cy="5.236" r="0.435" fill="rgba(115,184,235,0.07)"/><circle cx="40.436" cy="7.436" r="0.836" fill="#73B8EB"/><circle cx="42.636" cy="7.436" r="0.435" fill="rgba(115,184,235,0.07)"/><circle cx="44.836" cy="7.436" r="0.836" fill="#73B8EB"/><circle cx="47.036" cy="7.436" r="0.836" fill="#73B8EB"/><circle cx="49.236" cy="7.436" r="0.836" fill="#73B8EB"/><circle cx="40.436" cy="9.636" r="0.836" fill="#73B8EB"/><circle cx="42.636" cy="9.636" r="0.435" fill="rgba(115,184,235,0.07)"/><circle cx="44.836" cy="9.636" r="0.435" fill="rgba(115,184,235,0.07)"/><circle cx="47.036" cy="9.636" r="0.435" fill="rgba(115,184,235,0.07)"/><circle cx="49.236" cy="9.636" r="0.836" fill="#73B8EB"/><circle cx="40.436" cy="11.836" r="0.836" fill="#73B8EB"/><circle cx="42.636" cy="11.836" r="0.435" fill="rgba(115,184,235,0.07)"/><circle cx="44.836" cy="11.836" r="0.435" fill="rgba(115,184,235,0.07)"/><circle cx="47.036" cy="11.836" r="0.435" fill="rgba(115,184,235,0.07)"/><circle cx="49.236" cy="11.836" r="0.836" fill="#73B8EB"/><circle cx="40.436" cy="14.036" r="0.435" fill="rgba(115,184,235,0.07)"/><circle cx="42.636" cy="14.036" r="0.836" fill="#73B8EB"/><circle cx="44.836" cy="14.036" r="0.836" fill="#73B8EB"/><circle cx="47.036" cy="14.036" r="0.836" fill="#73B8EB"/><circle cx="49.236" cy="14.036" r="0.435" fill="rgba(115,184,235,0.07)"/><circle cx="53.636" cy="0.836" r="0.836" fill="#73B8EB"/><circle cx="55.836" cy="0.836" r="0.836" fill="#73B8EB"/><circle cx="58.036" cy="0.836" r="0.836" fill="#73B8EB"/><circle cx="60.236" cy="0.836" r="0.836" fill="#73B8EB"/><circle cx="62.436" cy="0.836" r="0.836" fill="#73B8EB"/><circle cx="53.636" cy="3.036" r="0.836" fill="#73B8EB"/><circle cx="55.836" cy="3.036" r="0.435" fill="rgba(115,184,235,0.07)"/><circle cx="58.036" cy="3.036" r="0.435" fill="rgba(115,184,235,0.07)"/><circle cx="60.236" cy="3.036" r="0.435" fill="rgba(115,184,235,0.07)"/><circle cx="62.436" cy="3.036" r="0.435" fill="rgba(115,184,235,0.07)"/><circle cx="53.636" cy="5.236" r="0.836" fill="#73B8EB"/><circle cx="55.836" cy="5.236" r="0.435" fill="rgba(115,184,235,0.07)"/><circle cx="58.036" cy="5.236" r="0.435" fill="rgba(115,184,235,0.07)"/><circle cx="60.236" cy="5.236" r="0.435" fill="rgba(115,184,235,0.07)"/><circle cx="62.436" cy="5.236" r="0.435" fill="rgba(115,184,235,0.07)"/><circle cx="53.636" cy="7.436" r="0.836" fill="#73B8EB"/><circle cx="55.836" cy="7.436" r="0.836" fill="#73B8EB"/><circle cx="58.036" cy="7.436" r="0.836" fill="#73B8EB"/><circle cx="60.236" cy="7.436" r="0.836" fill="#73B8EB"/><circle cx="62.436" cy="7.436" r="0.435" fill="rgba(115,184,235,0.07)"/><circle cx="53.636" cy="9.636" r="0.836" fill="#73B8EB"/><circle cx="55.836" cy="9.636" r="0.435" fill="rgba(115,184,235,0.07)"/><circle cx="58.036" cy="9.636" r="0.435" fill="rgba(115,184,235,0.07)"/><circle cx="60.236" cy="9.636" r="0.435" fill="rgba(115,184,235,0.07)"/><circle cx="62.436" cy="9.636" r="0.435" fill="rgba(115,184,235,0.07)"/><circle cx="53.636" cy="11.836" r="0.836" fill="#73B8EB"/><circle cx="55.836" cy="11.836" r="0.435" fill="rgba(115,184,235,0.07)"/><circle cx="58.036" cy="11.836" r="0.435" fill="rgba(115,184,235,0.07)"/><circle cx="60.236" cy="11.836" r="0.435" fill="rgba(115,184,235,0.07)"/><circle cx="62.436" cy="11.836" r="0.435" fill="rgba(115,184,235,0.07)"/><circle cx="53.636" cy="14.036" r="0.836" fill="#73B8EB"/><circle cx="55.836" cy="14.036" r="0.836" fill="#73B8EB"/><circle cx="58.036" cy="14.036" r="0.836" fill="#73B8EB"/><circle cx="60.236" cy="14.036" r="0.836" fill="#73B8EB"/><circle cx="62.436" cy="14.036" r="0.836" fill="#73B8EB"/>
</svg>
